<svg id="visual" viewBox="0 0 900 600" width="900" height="600" xmlns="http://www.w3.org/2000/svg" xmlns:xlink="http://www.w3.org/1999/xlink" version="1.1"><rect x="0" y="0" width="900" height="600" fill="#15803D"></rect><defs><linearGradient id="grad1_0" x1="33.3%" y1="100%" x2="100%" y2="0%"><stop offset="20%" stop-color="#59fa3c" stop-opacity="1"></stop><stop offset="80%" stop-color="#59fa3c" stop-opacity="1"></stop></linearGradient></defs><defs><linearGradient id="grad1_1" x1="33.3%" y1="100%" x2="100%" y2="0%"><stop offset="20%" stop-color="#59fa3c" stop-opacity="1"></stop><stop offset="80%" stop-color="#38d043" stop-opacity="1"></stop></linearGradient></defs><defs><linearGradient id="grad1_2" x1="33.3%" y1="100%" x2="100%" y2="0%"><stop offset="20%" stop-color="#20a843" stop-opacity="1"></stop><stop offset="80%" stop-color="#38d043" stop-opacity="1"></stop></linearGradient></defs><defs><linearGradient id="grad1_3" x1="33.3%" y1="100%" x2="100%" y2="0%"><stop offset="20%" stop-color="#20a843" stop-opacity="1"></stop><stop offset="80%" stop-color="#15803d" stop-opacity="1"></stop></linearGradient></defs><defs><linearGradient id="grad2_0" x1="0%" y1="100%" x2="66.7%" y2="0%"><stop offset="20%" stop-color="#59fa3c" stop-opacity="1"></stop><stop offset="80%" stop-color="#59fa3c" stop-opacity="1"></stop></linearGradient></defs><defs><linearGradient id="grad2_1" x1="0%" y1="100%" x2="66.7%" y2="0%"><stop offset="20%" stop-color="#38d043" stop-opacity="1"></stop><stop offset="80%" stop-color="#59fa3c" stop-opacity="1"></stop></linearGradient></defs><defs><linearGradient id="grad2_2" x1="0%" y1="100%" x2="66.7%" y2="0%"><stop offset="20%" stop-color="#38d043" stop-opacity="1"></stop><stop offset="80%" stop-color="#20a843" stop-opacity="1"></stop></linearGradient></defs><defs><linearGradient id="grad2_3" x1="0%" y1="100%" x2="66.7%" y2="0%"><stop offset="20%" stop-color="#15803d" stop-opacity="1"></stop><stop offset="80%" stop-color="#20a843" stop-opacity="1"></stop></linearGradient></defs><g transform="translate(900, 600)"><path d="M-486.7 0C-482.2 -64.9 -477.7 -129.9 -449.7 -186.3C-421.7 -242.7 -370.4 -290.6 -316.8 -316.8C-263.2 -343 -207.4 -347.6 -154.2 -372.3C-101.1 -397 -50.5 -441.9 0 -486.7L0 0Z" fill="#199441"></path><path d="M-365.1 0C-361.7 -48.7 -358.2 -97.4 -337.3 -139.7C-316.3 -182 -277.8 -217.9 -237.6 -237.6C-197.4 -257.3 -155.5 -260.7 -115.7 -279.2C-75.8 -297.8 -37.9 -331.4 0 -365.1L0 0Z" fill="#2bbc44"></path><path d="M-243.4 0C-241.1 -32.5 -238.8 -64.9 -224.8 -93.1C-210.9 -121.3 -185.2 -145.3 -158.4 -158.4C-131.6 -171.5 -103.7 -173.8 -77.1 -186.2C-50.5 -198.5 -25.3 -220.9 0 -243.4L0 0Z" fill="#48e541"></path><path d="M-121.7 0C-120.6 -16.2 -119.4 -32.5 -112.4 -46.6C-105.4 -60.7 -92.6 -72.6 -79.2 -79.2C-65.8 -85.8 -51.8 -86.9 -38.6 -93.1C-25.3 -99.3 -12.6 -110.5 0 -121.7L0 0Z" fill="#59fa3c"></path></g><g transform="translate(0, 0)"><path d="M486.7 0C468.4 58.8 450.1 117.5 429.6 177.9C409.1 238.4 386.3 300.4 344.2 344.2C302 388 240.5 413.5 179.9 434.2C119.3 454.9 59.6 470.8 0 486.7L0 0Z" fill="#199441"></path><path d="M365.1 0C351.3 44.1 337.6 88.2 322.2 133.5C306.8 178.8 289.8 225.3 258.1 258.1C226.5 291 180.3 310.1 134.9 325.7C89.4 341.2 44.7 353.1 0 365.1L0 0Z" fill="#2bbc44"></path><path d="M243.4 0C234.2 29.4 225.1 58.8 214.8 89C204.5 119.2 193.2 150.2 172.1 172.1C151 194 120.2 206.8 89.9 217.1C59.6 227.5 29.8 235.4 0 243.4L0 0Z" fill="#48e541"></path><path d="M121.7 0C117.1 14.7 112.5 29.4 107.4 44.5C102.3 59.6 96.6 75.1 86 86C75.5 97 60.1 103.4 45 108.6C29.8 113.7 14.9 117.7 0 121.7L0 0Z" fill="#59fa3c"></path></g></svg>