<svg id="visual" viewBox="0 0 900 600" width="900" height="600" xmlns="http://www.w3.org/2000/svg" xmlns:xlink="http://www.w3.org/1999/xlink" version="1.1"><rect x="0" y="0" width="900" height="600" fill="#15803D"></rect><defs><linearGradient id="grad1_0" x1="33.3%" y1="0%" x2="100%" y2="100%"><stop offset="20%" stop-color="#74ff5b" stop-opacity="1"></stop><stop offset="80%" stop-color="#74ff5b" stop-opacity="1"></stop></linearGradient></defs><defs><linearGradient id="grad1_1" x1="33.3%" y1="0%" x2="100%" y2="100%"><stop offset="20%" stop-color="#74ff5b" stop-opacity="1"></stop><stop offset="80%" stop-color="#4fd354" stop-opacity="1"></stop></linearGradient></defs><defs><linearGradient id="grad1_2" x1="33.3%" y1="0%" x2="100%" y2="100%"><stop offset="20%" stop-color="#30a94a" stop-opacity="1"></stop><stop offset="80%" stop-color="#4fd354" stop-opacity="1"></stop></linearGradient></defs><defs><linearGradient id="grad1_3" x1="33.3%" y1="0%" x2="100%" y2="100%"><stop offset="20%" stop-color="#30a94a" stop-opacity="1"></stop><stop offset="80%" stop-color="#15803d" stop-opacity="1"></stop></linearGradient></defs><defs><linearGradient id="grad2_0" x1="0%" y1="0%" x2="66.7%" y2="100%"><stop offset="20%" stop-color="#74ff5b" stop-opacity="1"></stop><stop offset="80%" stop-color="#74ff5b" stop-opacity="1"></stop></linearGradient></defs><defs><linearGradient id="grad2_1" x1="0%" y1="0%" x2="66.7%" y2="100%"><stop offset="20%" stop-color="#4fd354" stop-opacity="1"></stop><stop offset="80%" stop-color="#74ff5b" stop-opacity="1"></stop></linearGradient></defs><defs><linearGradient id="grad2_2" x1="0%" y1="0%" x2="66.7%" y2="100%"><stop offset="20%" stop-color="#4fd354" stop-opacity="1"></stop><stop offset="80%" stop-color="#30a94a" stop-opacity="1"></stop></linearGradient></defs><defs><linearGradient id="grad2_3" x1="0%" y1="0%" x2="66.7%" y2="100%"><stop offset="20%" stop-color="#15803d" stop-opacity="1"></stop><stop offset="80%" stop-color="#30a94a" stop-opacity="1"></stop></linearGradient></defs><g transform="translate(900, 0)"><path d="M0 486.7C-51 443.9 -102.1 401 -156.1 376.9C-210.2 352.9 -267.2 347.7 -320.3 320.3C-373.4 292.9 -422.6 243.4 -449.7 186.3C-476.8 129.2 -481.8 64.6 -486.7 0L0 0Z" fill="#229444"></path><path d="M0 365.1C-38.3 332.9 -76.6 300.7 -117.1 282.7C-157.6 264.7 -200.4 260.8 -240.2 240.2C-280.1 219.7 -317 182.5 -337.3 139.7C-357.6 96.9 -361.3 48.4 -365.1 0L0 0Z" fill="#3fbe4f"></path><path d="M0 243.4C-25.5 221.9 -51 200.5 -78.1 188.5C-105.1 176.5 -133.6 173.9 -160.2 160.2C-186.7 146.5 -211.3 121.7 -224.8 93.1C-238.4 64.6 -240.9 32.3 -243.4 0L0 0Z" fill="#61e958"></path><path d="M0 121.7C-12.8 111 -25.5 100.2 -39 94.2C-52.5 88.2 -66.8 86.9 -80.1 80.1C-93.4 73.2 -105.7 60.8 -112.4 46.6C-119.2 32.3 -120.4 16.1 -121.7 0L0 0Z" fill="#74ff5b"></path></g><g transform="translate(0, 600)"><path d="M0 -486.7C65.9 -472.7 131.9 -458.6 174.5 -421.3C217.1 -384 236.4 -323.4 285 -285C333.5 -246.5 411.2 -230.1 449.7 -186.3C488.2 -142.5 487.5 -71.2 486.7 0L0 0Z" fill="#229444"></path><path d="M0 -365.1C49.5 -354.5 98.9 -343.9 130.9 -316C162.8 -288 177.3 -242.6 213.7 -213.7C250.1 -184.9 308.4 -172.6 337.3 -139.7C366.1 -106.8 365.6 -53.4 365.1 0L0 0Z" fill="#3fbe4f"></path><path d="M0 -243.4C33 -236.3 65.9 -229.3 87.3 -210.6C108.6 -192 118.2 -161.7 142.5 -142.5C166.7 -123.2 205.6 -115 224.8 -93.1C244.1 -71.2 243.7 -35.6 243.4 0L0 0Z" fill="#61e958"></path><path d="M0 -121.7C16.5 -118.2 33 -114.6 43.6 -105.3C54.3 -96 59.1 -80.9 71.2 -71.2C83.4 -61.6 102.8 -57.5 112.4 -46.6C122 -35.6 121.9 -17.8 121.7 0L0 0Z" fill="#74ff5b"></path></g></svg>