<svg id="visual" viewBox="0 0 900 600" width="900" height="600" xmlns="http://www.w3.org/2000/svg" xmlns:xlink="http://www.w3.org/1999/xlink" version="1.1"><path d="M0 103L82 61L164 61L245 97L327 79L409 175L491 67L573 145L655 145L736 73L818 145L900 67L900 0L818 0L736 0L655 0L573 0L491 0L409 0L327 0L245 0L164 0L82 0L0 0Z" fill="#7db648"></path><path d="M0 259L82 211L164 211L245 337L327 253L409 433L491 337L573 247L655 283L736 217L818 307L900 295L900 65L818 143L736 71L655 143L573 143L491 65L409 173L327 77L245 95L164 59L82 59L0 101Z" fill="#6ab247"></path><path d="M0 319L82 325L164 259L245 445L327 319L409 475L491 421L573 319L655 355L736 331L818 367L900 355L900 293L818 305L736 215L655 281L573 245L491 335L409 431L327 251L245 335L164 209L82 209L0 257Z" fill="#56ad47"></path><path d="M0 505L82 559L164 565L245 541L327 511L409 565L491 547L573 511L655 523L736 541L818 499L900 547L900 353L818 365L736 329L655 353L573 317L491 419L409 473L327 317L245 443L164 257L82 323L0 317Z" fill="#3da848"></path><path d="M0 601L82 601L164 601L245 601L327 601L409 601L491 601L573 601L655 601L736 601L818 601L900 601L900 545L818 497L736 539L655 521L573 509L491 545L409 563L327 509L245 539L164 563L82 557L0 503Z" fill="#16a34a"></path></svg>