<svg id="visual" viewBox="0 0 900 600" width="900" height="600" xmlns="http://www.w3.org/2000/svg" xmlns:xlink="http://www.w3.org/1999/xlink" version="1.1"><rect x="0" y="0" width="900" height="600" fill="#16A34A"></rect><path d="M0 236L30 239C60 242 120 248 180 262.3C240 276.7 300 299.3 360 294.2C420 289 480 256 540 257.8C600 259.7 660 296.3 720 309C780 321.7 840 310.3 870 304.7L900 299L900 601L870 601C840 601 780 601 720 601C660 601 600 601 540 601C480 601 420 601 360 601C300 601 240 601 180 601C120 601 60 601 30 601L0 601Z" fill="#74bb4c"></path><path d="M0 338L30 331.5C60 325 120 312 180 321.2C240 330.3 300 361.7 360 365.3C420 369 480 345 540 344C600 343 660 365 720 360.8C780 356.7 840 326.3 870 311.2L900 296L900 601L870 601C840 601 780 601 720 601C660 601 600 601 540 601C480 601 420 601 360 601C300 601 240 601 180 601C120 601 60 601 30 601L0 601Z" fill="#5aa645"></path><path d="M0 366L30 378.3C60 390.7 120 415.3 180 426.5C240 437.7 300 435.3 360 432.7C420 430 480 427 540 426C600 425 660 426 720 430.5C780 435 840 443 870 447L900 451L900 601L870 601C840 601 780 601 720 601C660 601 600 601 540 601C480 601 420 601 360 601C300 601 240 601 180 601C120 601 60 601 30 601L0 601Z" fill="#42913e"></path><path d="M0 491L30 489C60 487 120 483 180 471.8C240 460.7 300 442.3 360 437.8C420 433.3 480 442.7 540 455.7C600 468.7 660 485.3 720 488.2C780 491 840 480 870 474.5L900 469L900 601L870 601C840 601 780 601 720 601C660 601 600 601 540 601C480 601 420 601 360 601C300 601 240 601 180 601C120 601 60 601 30 601L0 601Z" fill="#297c37"></path><path d="M0 543L30 535.5C60 528 120 513 180 511.3C240 509.7 300 521.3 360 529C420 536.7 480 540.3 540 544.7C600 549 660 554 720 546.3C780 538.7 840 518.3 870 508.2L900 498L900 601L870 601C840 601 780 601 720 601C660 601 600 601 540 601C480 601 420 601 360 601C300 601 240 601 180 601C120 601 60 601 30 601L0 601Z" fill="#0d682f"></path></svg>