<svg id="visual" viewBox="0 0 900 600" width="900" height="600" xmlns="http://www.w3.org/2000/svg" xmlns:xlink="http://www.w3.org/1999/xlink" version="1.1"><path d="M0 61L11.5 62C23 63 46 65 69 67C92 69 115 71 138.2 74C161.3 77 184.7 81 207.8 79C231 77 254 69 277 60C300 51 323 41 346 42C369 43 392 55 415.2 57C438.3 59 461.7 51 484.8 51C508 51 531 59 554 63C577 67 600 67 623 64C646 61 669 55 692.2 58C715.3 61 738.7 73 761.8 74C785 75 808 65 831 59C854 53 877 51 888.5 50L900 49L900 0L888.5 0C877 0 854 0 831 0C808 0 785 0 761.8 0C738.7 0 715.3 0 692.2 0C669 0 646 0 623 0C600 0 577 0 554 0C531 0 508 0 484.8 0C461.7 0 438.3 0 415.2 0C392 0 369 0 346 0C323 0 300 0 277 0C254 0 231 0 207.8 0C184.7 0 161.3 0 138.2 0C115 0 92 0 69 0C46 0 23 0 11.5 0L0 0Z" fill="#7db648"></path><path d="M0 139L11.5 138C23 137 46 135 69 136C92 137 115 141 138.2 153C161.3 165 184.7 185 207.8 185C231 185 254 165 277 154C300 143 323 141 346 143C369 145 392 151 415.2 145C438.3 139 461.7 121 484.8 124C508 127 531 151 554 156C577 161 600 147 623 148C646 149 669 165 692.2 170C715.3 175 738.7 169 761.8 169C785 169 808 175 831 176C854 177 877 173 888.5 171L900 169L900 47L888.5 48C877 49 854 51 831 57C808 63 785 73 761.8 72C738.7 71 715.3 59 692.2 56C669 53 646 59 623 62C600 65 577 65 554 61C531 57 508 49 484.8 49C461.7 49 438.3 57 415.2 55C392 53 369 41 346 40C323 39 300 49 277 58C254 67 231 75 207.8 77C184.7 79 161.3 75 138.2 72C115 69 92 67 69 65C46 63 23 61 11.5 60L0 59Z" fill="#56ad47"></path><path d="M0 259L11.5 279C23 299 46 339 69 353C92 367 115 355 138.2 338C161.3 321 184.7 299 207.8 286C231 273 254 269 277 276C300 283 323 301 346 312C369 323 392 327 415.2 310C438.3 293 461.7 255 484.8 261C508 267 531 317 554 321C577 325 600 283 623 285C646 287 669 333 692.2 353C715.3 373 738.7 367 761.8 347C785 327 808 293 831 274C854 255 877 251 888.5 249L900 247L900 167L888.5 169C877 171 854 175 831 174C808 173 785 167 761.8 167C738.7 167 715.3 173 692.2 168C669 163 646 147 623 146C600 145 577 159 554 154C531 149 508 125 484.8 122C461.7 119 438.3 137 415.2 143C392 149 369 143 346 141C323 139 300 141 277 152C254 163 231 183 207.8 183C184.7 183 161.3 163 138.2 151C115 139 92 135 69 134C46 133 23 135 11.5 136L0 137Z" fill="#16a34a"></path><path d="M0 523L11.5 514C23 505 46 487 69 470C92 453 115 437 138.2 439C161.3 441 184.7 461 207.8 460C231 459 254 437 277 436C300 435 323 455 346 459C369 463 392 451 415.2 451C438.3 451 461.7 463 484.8 463C508 463 531 451 554 443C577 435 600 431 623 434C646 437 669 447 692.2 455C715.3 463 738.7 469 761.8 477C785 485 808 495 831 482C854 469 877 433 888.5 415L900 397L900 245L888.5 247C877 249 854 253 831 272C808 291 785 325 761.8 345C738.7 365 715.3 371 692.2 351C669 331 646 285 623 283C600 281 577 323 554 319C531 315 508 265 484.8 259C461.7 253 438.3 291 415.2 308C392 325 369 321 346 310C323 299 300 281 277 274C254 267 231 271 207.8 284C184.7 297 161.3 319 138.2 336C115 353 92 365 69 351C46 337 23 297 11.5 277L0 257Z" fill="#16a34a"></path><path d="M0 565L11.5 566C23 567 46 569 69 561C92 553 115 535 138.2 525C161.3 515 184.7 513 207.8 512C231 511 254 511 277 521C300 531 323 551 346 556C369 561 392 551 415.2 542C438.3 533 461.7 525 484.8 523C508 521 531 525 554 526C577 527 600 525 623 524C646 523 669 523 692.2 521C715.3 519 738.7 515 761.8 518C785 521 808 531 831 530C854 529 877 517 888.5 511L900 505L900 395L888.5 413C877 431 854 467 831 480C808 493 785 483 761.8 475C738.7 467 715.3 461 692.2 453C669 445 646 435 623 432C600 429 577 433 554 441C531 449 508 461 484.8 461C461.7 461 438.3 449 415.2 449C392 449 369 461 346 457C323 453 300 433 277 434C254 435 231 457 207.8 458C184.7 459 161.3 439 138.2 437C115 435 92 451 69 468C46 485 23 503 11.5 512L0 521Z" fill="#56ad47"></path><path d="M0 601L11.5 601C23 601 46 601 69 601C92 601 115 601 138.2 601C161.3 601 184.7 601 207.8 601C231 601 254 601 277 601C300 601 323 601 346 601C369 601 392 601 415.2 601C438.3 601 461.7 601 484.8 601C508 601 531 601 554 601C577 601 600 601 623 601C646 601 669 601 692.2 601C715.3 601 738.7 601 761.8 601C785 601 808 601 831 601C854 601 877 601 888.5 601L900 601L900 503L888.5 509C877 515 854 527 831 528C808 529 785 519 761.8 516C738.7 513 715.3 517 692.2 519C669 521 646 521 623 522C600 523 577 525 554 524C531 523 508 519 484.8 521C461.7 523 438.3 531 415.2 540C392 549 369 559 346 554C323 549 300 529 277 519C254 509 231 509 207.8 510C184.7 511 161.3 513 138.2 523C115 533 92 551 69 559C46 567 23 565 11.5 564L0 563Z" fill="#7db648"></path></svg>